Ip.Man.2.2010.1080p.BLuray.mkv
******************************

TiTLE......  Yip Man 2  
AKA:         Ip Man 2
YEAR.......  2010
GENRE......  Action | Biography | History
iMDB RATE..  User Rating: 7.8/10 (2,446 votes)
iMDB URL...  http://www.imdb.com/title/tt1386932/
*************************************************

Video
Duration                         : 1h 48mn
Overall bit rate                 : 9 661 Kbps
Width                            : 1 920 pixels
Height                           : 816 pixels
Display aspect ratio             : 2.35:1
Frame rate                       : 23.976 fps
Stream size                      : 5.52 GiB (76%)

Audio #1
********
Format                           : DTS
Bit rate                         : 1 510 Kbps
Channel(s)                       : 6 channels
Channel positions                : Front: L C R, Surround: L R, LFE
Sampling rate                    : 48.0 KHz
Resolution                       : 24 bits
Stream size                      : 1.14 GiB (16%)
Language                         : Chinese (Cantonese)

Audio #2
********
Format                           : AC-3
Bit rate                         : 640 Kbps
Channel(s)                       : 6 channels
Channel positions                : Front: L C R, Surround: L R, LFE
Sampling rate                    : 48.0 KHz
Stream size                      : 495 MiB (7%)
Language                         : Chinese (Mandarin)

Subtitles: Chinese, English (file *.sub *.idx)
**********************************************
source: Disk Bluray RETAIL (Hong Kong)
**************************************
